<?xml version="1.0" encoding="UTF-8"?><svg id="a" xmlns="http://www.w3.org/2000/svg" viewBox="0 0 920 920"><defs><style>.b{fill:#4a89bf;}.b,.c{stroke-width:0px;}.c{fill:#fafafa;}</style></defs><rect class="b" width="920" height="920" rx="64" ry="64"/><path class="c" d="m738.98,633.78c-8.93,4.84-17.29,8.47-25.11,10.88-7.81,2.41-16.57,3.61-26.24,3.61-10.43,0-19.53-1.81-27.34-5.42-7.81-3.61-15.81-9.65-24.01-18.1s-17.86-20.53-29.01-36.22l-127.18-177.65,44.56-42.29c15.63-15.07,30.51-27.15,44.66-36.21,14.15-9.05,29.39-15.83,45.77-20.36,16.37-4.53,35.35-7.69,56.93-9.5,21.58-1.81,47.62-3.01,78.14-3.63,0-26.54-5.95-47.65-17.86-63.34-11.91-15.69-33.49-23.54-64.74-23.54-17.12,0-32.94,2.43-47.44,7.24-14.52,4.84-28.67,11.77-42.44,20.82s-28.29,20.67-43.54,34.85-32.18,30.92-50.78,50.23l-161.02,161.52,8.09-270.14h-130.61l5.58,485.14h110.51l4.16-138.91,86.87-82.44,88.72,137.17c16.37,25.95,32.18,45.57,47.43,58.84,15.25,13.28,31.44,21.87,48.56,25.8,17.11,3.92,36.46,5.89,58.06,5.89s42.78-3.03,61.38-9.05c18.6-6.02,34.98-13.58,49.13-22.63l-21.22-42.54Z"/></svg>