<?xml version="1.0" encoding="UTF-8"?><svg id="a" xmlns="http://www.w3.org/2000/svg" viewBox="0 0 1024 1024"><defs><style>.b{fill:#4a89bf;}.b,.c{stroke-width:0px;}.c{fill:#fafafa;}</style></defs><rect class="b" x="52" y="52" width="920" height="920" rx="64" ry="64"/><path class="c" d="m729.79,685.78c-6.82,4.84-13.21,8.47-19.18,10.88-5.97,2.41-12.66,3.61-20.04,3.61-7.96,0-14.92-1.81-20.88-5.42-5.97-3.61-12.08-9.65-18.33-18.1s-13.64-20.53-22.16-36.22l-97.13-177.65,34.03-42.29c11.93-15.07,23.3-27.15,34.11-36.21,10.8-9.05,22.45-15.83,34.96-20.36,12.5-4.53,27-7.69,43.48-9.5,16.48-1.81,36.37-3.01,59.68-3.63,0-26.54-4.55-47.65-13.64-63.34-9.09-15.69-25.58-23.54-49.44-23.54-13.08,0-25.16,2.43-36.24,7.24-11.09,4.84-21.9,11.77-32.41,20.82-10.51,9.05-21.61,20.67-33.25,34.85-11.64,14.18-24.58,30.92-38.78,50.23l-122.98,161.52,6.18-270.14h-99.75l4.26,485.14h84.4l3.18-138.91,66.34-82.44,67.76,137.17c12.5,25.95,24.58,45.57,36.22,58.84,11.64,13.28,24.01,21.87,37.09,25.8,13.06,3.92,27.85,5.89,44.34,5.89s32.67-3.03,46.88-9.05c14.21-6.02,26.72-13.58,37.52-22.63l-16.21-42.54Z"/></svg>